<?xml version="1.0" encoding="iso-8859-1"?>
<!-- Generator: Adobe Illustrator 19.0.0, SVG Export Plug-In . SVG Version: 6.00 Build 0)  -->
<svg version="1.1" id="Layer_1" xmlns="http://www.w3.org/2000/svg" xmlns:xlink="http://www.w3.org/1999/xlink" x="0px" y="0px"
	 viewBox="0 0 512 512" style="enable-background:new 0 0 512 512;" xml:space="preserve">
<path style="fill:#EC5565;" d="M512,256.006C512,397.402,397.394,512.004,256.004,512C114.606,512.004,0,397.402,0,256.006
	C-0.007,114.61,114.606,0,256.004,0C397.394,0,512,114.614,512,256.006z"/>
<path style="fill:#D94453;" d="M508.576,297.655c-0.361-0.361-122.629-122.599-123.11-123.11
	c-11.917-13.853-32.075-20.709-56.724-20.914c-0.473-0.518-29.239-29.211-29.73-29.724c-12.481-13.681-27.155-21.507-43.012-21.507
	c-25.239,0-47.505,19.774-62.642,51.54c-0.469-0.029-0.96-0.107-1.427-0.13c-34.022-1.841-59.028,8.039-70.403,27.742
	c-12.166,21.089-6.405,49.305,12.869,77.651c-19.278,28.347-25.037,56.562-12.866,77.65c2.721,4.713,6.199,8.826,10.34,12.347
	c0.516,0.478,158.693,158.774,159.232,159.233c0.342,0.318,0.663,0.654,0.989,0.987
	C402.726,493.807,490.595,407.516,508.576,297.655z"/>
<g>
	<path style="fill:#F4F6F9;" d="M377.607,259.194c19.271-28.346,25.028-56.559,12.857-77.647
		c-11.951-20.702-38.555-29.771-71.871-27.708c-15.136-31.709-37.382-51.439-62.594-51.439c-25.239,0-47.505,19.774-62.642,51.54
		c-0.469-0.029-0.959-0.106-1.427-0.13c-34.022-1.841-59.028,8.041-70.403,27.744c-12.165,21.088-6.405,49.303,12.869,77.649
		c-19.278,28.348-25.037,56.563-12.866,77.651c10.863,18.806,33.75,28.1,62.828,28.1c3.953,0,8.029-0.188,12.195-0.53
		c14.995,28.023,35.933,45.176,59.446,45.176c23.514,0,44.452-17.152,59.446-45.18c4.165,0.342,8.239,0.53,12.191,0.53
		c29.072,0,51.972-9.294,62.831-28.097C402.641,315.759,396.884,287.54,377.607,259.194z M379.38,187.947
		c8.944,15.499,4.285,37.268-10.151,59.983c-9.03-11.2-20.087-22.27-32.912-32.783c-2.549-17.689-6.727-34.015-12.233-48.446
		C350.146,165.915,370.624,172.786,379.38,187.947z M290.645,319.219c-11.492,6.634-23.138,12.205-34.655,16.841
		c-11.51-4.636-23.15-10.205-34.636-16.837v0.003c-11.741-6.781-22.615-14.25-32.56-22.092c-2.073-13.069-3.197-26.889-3.197-41.123
		c0-11.658,0.761-23.035,2.171-33.953c10.211-8.133,21.453-15.867,33.591-22.878v0.003c11.521-6.653,23.197-12.238,34.742-16.881
		c11.541,4.699,23.136,10.3,34.535,16.884c12.138,7.008,23.377,14.736,33.587,22.866c1.411,10.921,2.172,22.299,2.172,33.959
		c0,14.234-1.124,28.053-3.197,41.122C313.259,304.971,302.385,312.438,290.645,319.219z M319.422,316.033
		c-3.051,12.54-7.009,24.109-11.695,34.34c-10.836-1.503-22.343-4.189-34.161-7.952c7.807-3.643,15.646-7.596,23.479-12.118
		C304.896,325.769,312.35,320.987,319.422,316.033z M238.418,342.419c-11.814,3.759-23.318,6.445-34.151,7.949
		c-4.685-10.229-8.642-21.797-11.692-34.333c7.073,4.955,14.528,9.737,22.38,14.272c0,0.003,0,0.003,0,0.003
		C222.783,334.828,230.617,338.778,238.418,342.419z M174.211,284.695c-9.035-8.329-16.977-16.907-23.581-25.493
		c6.454-8.39,14.198-16.769,22.978-24.922c-0.522,7.089-0.811,14.334-0.811,21.728C172.799,265.844,173.297,275.421,174.211,284.695
		z M201.706,167.552c11.847,1.441,24.258,4.247,36.906,8.321c-7.862,3.662-15.761,7.666-23.65,12.221v0.003
		c-8.486,4.901-16.511,10.091-24.084,15.476C193.587,190.527,197.252,178.388,201.706,167.552z M273.6,175.974
		c12.787-4.068,25.166-6.802,36.77-8.226c4.416,10.786,8.055,22.851,10.749,35.819c-7.572-5.382-15.595-10.569-24.08-15.467
		C289.302,183.631,281.46,179.631,273.6,175.974z M338.387,234.271c8.783,8.15,16.53,16.532,22.986,24.924
		c-6.605,8.589-14.549,17.169-23.587,25.5c0.914-9.276,1.412-18.851,1.412-28.686C339.199,248.611,338.91,241.362,338.387,234.271z
		 M255.999,115.2c18.657,0,35.888,15.441,48.639,40.119c-15.371,2.246-31.789,6.569-48.701,13.105
		c-16.575-6.364-32.995-10.732-48.635-12.995C220.059,130.688,237.313,115.2,255.999,115.2z M132.614,187.95
		c8.495-14.717,28.132-22.205,55.359-21.407c-5.536,14.473-9.735,30.857-12.294,48.614c-12.82,10.512-23.874,21.582-32.903,32.78
		C128.336,225.222,123.671,203.449,132.614,187.95z M132.618,330.453c-8.945-15.498-4.283-37.27,10.158-59.986
		c9.302,11.537,20.752,22.942,34.07,33.738c3.026,17.451,7.665,33.436,13.61,47.409
		C163.173,352.945,141.655,346.107,132.618,330.453z M255.999,396.8c-17.101,0-33.002-12.975-45.356-34.135
		c14.386-2.368,29.685-6.665,45.354-12.717c15.67,6.051,30.97,10.347,45.358,12.715C289.001,383.823,273.1,396.8,255.999,396.8z
		 M379.382,330.453c-9.042,15.654-30.561,22.497-57.843,21.167c5.946-13.974,10.587-29.963,13.613-47.417
		c13.321-10.799,24.772-22.203,34.076-33.743C383.669,293.175,388.33,314.949,379.382,330.453z"/>
	<path style="fill:#F4F6F9;" d="M255.998,236.8c-14.156,0-25.599,11.444-25.599,25.617c0,14.139,11.443,25.583,25.599,25.583
		c14.141,0,25.601-11.444,25.601-25.583C281.599,248.244,270.139,236.8,255.998,236.8z"/>
</g>
<g>
</g>
<g>
</g>
<g>
</g>
<g>
</g>
<g>
</g>
<g>
</g>
<g>
</g>
<g>
</g>
<g>
</g>
<g>
</g>
<g>
</g>
<g>
</g>
<g>
</g>
<g>
</g>
<g>
</g>
</svg>
