<?xml version="1.0" encoding="iso-8859-1"?>
<!-- Generator: Adobe Illustrator 19.0.0, SVG Export Plug-In . SVG Version: 6.00 Build 0)  -->
<svg version="1.1" id="Layer_1" xmlns="http://www.w3.org/2000/svg" xmlns:xlink="http://www.w3.org/1999/xlink" x="0px" y="0px"
	 viewBox="0 0 512.001 512.001" style="enable-background:new 0 0 512.001 512.001;" xml:space="preserve">
<path style="fill:#51B3DA;" d="M404.863,292.4l-45.044-45.044c-7.884-7.884-7.884-20.667,0-28.551l72.674-72.674
	c7.884-7.884,20.667-7.884,28.551,0l45.044,45.044c7.884,7.884,7.884,20.667,0,28.551L433.414,292.4
	C425.53,300.285,412.747,300.285,404.863,292.4z"/>
<path style="fill:#939598;" d="M384.899,98.544l26.125-26.125c18.865-18.865,47.435,9.668,28.551,28.551l-26.125,26.125
	C394.587,145.96,366.015,117.429,384.899,98.544z"/>
<path style="fill:#808285;" d="M439.579,72.423l-54.676,54.676c7.884,7.882,20.665,7.88,28.549-0.003l26.125-26.125
	C447.459,93.089,447.459,80.308,439.579,72.423z"/>
<path style="fill:#939598;" d="M161.899,321.545l150.327-150.327c7.884-7.884,20.667-7.884,28.551,0
	c7.884,7.884,7.884,20.667,0,28.551L190.45,350.096C171.586,368.961,143.016,340.428,161.899,321.545z"/>
<path style="fill:#808285;" d="M340.78,171.22L161.902,350.099c7.884,7.882,20.665,7.88,28.549-0.003l150.327-150.327
	C348.661,191.886,348.662,179.105,340.78,171.22z"/>
<path style="fill:#80D0E1;" d="M264.646,152.183l-45.044-45.044c-7.884-7.884-7.884-20.667,0-28.551l72.674-72.674
	c7.884-7.884,20.667-7.884,28.551,0l45.044,45.044c7.884,7.884,7.884,20.667,0,28.551l-72.674,72.674
	C285.313,160.068,272.529,160.068,264.646,152.183z"/>
<path style="fill:#FF5E5B;" d="M18.915,493.086c-25.22-25.22-25.22-66.255,0-91.474l111.525-111.525
	c7.884-7.884,20.667-7.884,28.551,0l62.922,62.922c7.884,7.884,7.884,20.667,0,28.551L110.389,493.086
	C85.17,518.306,44.135,518.306,18.915,493.086z"/>
<path style="fill:#FF423D;" d="M221.914,353.009l-31.461-31.461L18.915,493.086c25.22,25.22,66.255,25.22,91.474,0L221.914,381.56
	C229.799,373.677,229.799,360.893,221.914,353.009z"/>
<path style="fill:#C7E9F4;" d="M374.094,261.631L250.37,137.907L351.595,36.682l123.724,123.724L374.094,261.631z"/>
<rect x="350.033" y="108.505" transform="matrix(-0.7071 -0.7071 0.7071 -0.7071 544.8805 585.8586)" style="fill:#80D0E1;" width="87.485" height="143.152"/>
<g>
</g>
<g>
</g>
<g>
</g>
<g>
</g>
<g>
</g>
<g>
</g>
<g>
</g>
<g>
</g>
<g>
</g>
<g>
</g>
<g>
</g>
<g>
</g>
<g>
</g>
<g>
</g>
<g>
</g>
</svg>
