<?xml version="1.0" encoding="iso-8859-1"?>
<!-- Generator: Adobe Illustrator 19.0.0, SVG Export Plug-In . SVG Version: 6.00 Build 0)  -->
<svg version="1.1" id="Capa_1" xmlns="http://www.w3.org/2000/svg" xmlns:xlink="http://www.w3.org/1999/xlink" x="0px" y="0px"
	 viewBox="0 0 460 460" style="enable-background:new 0 0 460 460;" xml:space="preserve">
<g id="XMLID_497_">
	<path id="XMLID_498_" style="fill:#FFC477;" d="M210,199.805h-40v50h-40.135v-50h-40v50H79.663c-16.542,0-30-13.458-30-30v-20h-40
		v20c0,38.599,31.402,70,70,70H210V199.805z"/>
	<path id="XMLID_500_" style="fill:#FFA733;" d="M410.337,219.805c0,16.542-13.458,30-30,30h-10.203v-50h-40v50H290v-50h-40v50h-40
		v150h40v-110h130.337c38.598,0,70-31.401,70-70v-20h-40V219.805z"/>
	<polygon id="XMLID_503_" style="fill:#317F46;" points="429.1,158.575 426.33,126.195 393.73,126.275 382.46,95.745 
		350.73,103.215 333.63,75.485 303.74,88.485 282.32,63.925 254.78,81.365 230,60.195 230,199.805 450.34,199.805 460,168.845 	"/>
	<polygon id="XMLID_506_" style="fill:#3FA45A;" points="230,199.805 230,60.195 205.22,81.365 177.68,63.925 156.26,88.485 
		126.37,75.485 109.27,103.215 77.54,95.735 66.27,126.275 33.68,126.185 30.9,158.565 0,168.845 9.66,199.805 	"/>
</g>
<g>
</g>
<g>
</g>
<g>
</g>
<g>
</g>
<g>
</g>
<g>
</g>
<g>
</g>
<g>
</g>
<g>
</g>
<g>
</g>
<g>
</g>
<g>
</g>
<g>
</g>
<g>
</g>
<g>
</g>
</svg>
