<?xml version="1.0" ?><!DOCTYPE svg  PUBLIC '-//W3C//DTD SVG 1.1//EN'  'http://www.w3.org/Graphics/SVG/1.1/DTD/svg11.dtd'><svg width="250px" height="250px" viewBox="0 0 250 250" style="fill-rule:evenodd;clip-rule:evenodd;stroke-linecap:round;stroke-linejoin:round;stroke-miterlimit:1.5;" version="1.1" xml:space="preserve" xmlns="http://www.w3.org/2000/svg" xmlns:serif="http://www.serif.com/" xmlns:xlink="http://www.w3.org/1999/xlink"><g transform="matrix(-0.917774,-0.797809,-0.797809,0.917774,321.243,116.457)"><g transform="matrix(1,0,0,1.05469,-1.5379,-0.851126)"><path d="M90.544,14.562C90.544,12.417 88.707,10.675 86.444,10.675L78.244,10.675C75.981,10.675 74.144,12.417 74.144,14.562L74.144,32.387C74.144,34.533 75.981,36.275 78.244,36.275L86.444,36.275C88.707,36.275 90.544,34.533 90.544,32.387L90.544,14.562Z" style="fill:rgb(191,191,191);"/></g><g transform="matrix(-0.620617,-0.539494,-0.539494,0.620617,262.197,101.034)"><path d="M243.908,66.742C244.568,68.417 244.295,70.394 243.033,71.846L228.035,89.1C226.229,91.177 223.078,91.397 221.001,89.592L213.475,83.05C211.398,81.244 211.178,78.093 212.983,76.016L218.109,70.119C218.393,70.841 218.85,71.506 219.475,72.05L227.001,78.592C229.078,80.397 232.229,80.177 234.035,78.1L243.908,66.742Z" style="fill:rgb(140,140,140);"/></g><g transform="matrix(1,-5.55112e-17,0,1.05469,-1.5379,-0.851126)"><path d="M90.544,14.562C90.544,12.417 88.707,10.675 86.444,10.675L78.244,10.675C75.981,10.675 74.144,12.417 74.144,14.562L74.144,32.387C74.144,34.533 75.981,36.275 78.244,36.275L86.444,36.275C88.707,36.275 90.544,34.533 90.544,32.387L90.544,14.562Z" style="fill:none;stroke:black;stroke-width:6px;"/></g><path d="M131,38.407L131,125L119,125L118.783,45.075C118.574,39.036 114.917,33.838 109.849,31.265L109.849,31.325L89.006,31.325L89.006,17.235L107.587,17.235C109.447,15.796 123.369,10.407 132.161,10.407C154.697,10.407 172.994,23.441 172.994,39.495C172.994,42.452 172.373,45.307 171.22,47.995C167.094,38.376 156.154,31.035 142.413,28.5C142.413,28.5 141.48,28.407 141,28.407C135.481,28.407 131,32.888 131,38.407Z" style="fill:rgb(191,191,191);"/><g transform="matrix(-0.620617,-0.539494,-0.539494,0.620617,262.197,101.034)"><path d="M104.278,123.227L107.927,131.239L176.266,53.059C181.276,47.683 188.78,45.83 195.483,47.512L195.435,47.568L219.516,68.501L214.564,74.197L195.435,57.568L195.483,57.512C188.78,55.83 181.276,57.683 176.266,63.059L112.302,136.239L101.289,126.666L104.278,123.227ZM134.634,15.225C144.739,13.686 156.639,14.407 167.803,20.995C167.803,20.995 168.733,21.655 169.173,22.037C174.239,26.441 180.276,34.128 175.873,39.193C175.643,39.458 174.589,39.539 173.35,39.535C173.44,36.031 172.023,32.515 169.173,30.037C168.733,29.655 167.803,28.995 167.803,28.995C153.169,20.36 137.272,18.368 125.811,23.904C126.897,20.517 128.605,20.402 130.964,17.688C132.082,16.402 133.31,16.248 134.634,15.225Z" style="fill:rgb(140,140,140);"/></g><path d="M131,38.407L131,125L119,125L118.783,45.075C118.574,39.036 114.917,33.838 109.849,31.265L109.849,31.325L89.006,31.325L89.006,17.235L107.587,17.235C109.447,15.796 123.369,10.407 132.161,10.407C154.697,10.407 172.994,23.441 172.994,39.495C172.994,42.452 172.373,45.307 171.22,47.995C167.094,38.376 156.154,31.035 142.413,28.5C142.413,28.5 141.48,28.407 141,28.407C135.481,28.407 131,32.888 131,38.407Z" style="fill:none;stroke:black;stroke-width:6.17px;"/><g transform="matrix(0.192937,-2.77556e-17,0,0.21565,43.2378,36.8343)"><path d="M472.035,408.836C487.168,584.477 500,768.478 500,887.413C500,929.482 465.845,963.636 423.776,963.636C381.707,963.636 347.552,929.482 347.552,887.413C347.552,768.478 360.384,584.477 375.518,408.836L472.035,408.836Z" style="fill:rgb(242,13,13);"/></g><g transform="matrix(-0.620617,-0.539494,-0.539494,0.620617,262.197,101.034)"><path d="M107.202,131.806L115.341,138.881C87.802,175.973 58.417,214.365 37.955,237.904C30.717,246.231 18.793,247.733 11.343,241.258C5.176,235.896 3.997,226.737 7.881,219.019C8.77,220.591 9.925,222.025 11.343,223.258C18.793,229.733 30.717,228.231 37.955,219.904C56.412,198.672 82.128,165.355 107.202,131.806Z" style="fill:rgb(190,15,15);"/></g><g transform="matrix(0.192937,-1.52656e-16,8.32667e-17,0.21565,43.2378,36.8343)"><path d="M472.035,408.836C487.168,584.477 500,768.478 500,887.413C500,929.482 465.845,963.636 423.776,963.636C381.707,963.636 347.552,929.482 347.552,887.413C347.552,768.478 360.384,584.477 375.518,408.836L472.035,408.836Z" style="fill:none;stroke:black;stroke-width:30.14px;"/></g></g></svg>